<svg xmlns="http://www.w3.org/2000/svg" width="520" height="520" viewBox="0 0 520 520">
	<style>
		@media(prefers-color-scheme:light) {
			g {
				fill: #000;
				stroke: #fff
			}
		}

		@media(prefers-color-scheme:dark) {
			g {
				fill: #fff;
				stroke: #000
			}
		}
	</style>

	<g fill-rule="evenodd">
		<path stroke-width="5"
			d="M260.003198,468.943284 C144.789616,468.943284 51.0600008,375.210672 51.0600008,260.001599 C51.0600008,144.793592 144.789616,51.0599132 260.002132,51.0599132 C375.210384,51.0599132 468.939999,144.793592 468.939999,260.001599 C468.939999,375.210672 375.210384,468.943284 260.002132,468.943284 M260.003198,10 C121.928526,10 10,121.928287 10,260.002665 C10,398.077042 121.926394,510 260.003198,510 C398.073606,510 510,398.077042 510,260.001599 C510,121.928287 398.073606,10 260.003198,10" />
		<path stroke-width="5"
			d="M260.579892,107.5 C262.665468,107.5 264.751044,108.104018 266.562669,109.31238 L407.81702,203.481747 C408.136194,203.71325 408.307199,203.846151 408.463128,203.967406 C408.73209,204.179433 408.941007,204.355401 409.143884,204.538203 C409.286558,204.665185 409.408408,204.794111 409.532248,204.921779 C409.754636,205.145347 409.93137,205.335328 410.100475,205.531299 C410.394067,205.88725 410.667417,206.259427 410.919189,206.646107 C411.071485,206.889959 411.157781,207.027114 411.240024,207.169431 C411.36315,207.38237 411.475554,207.601332 411.576815,207.825495 C411.693366,208.065649 411.770794,208.234529 411.843628,208.40544 C411.941516,208.649019 412.02157,208.897632 412.103038,209.147466 C412.347241,209.96799 412.416597,210.270196 412.466681,210.576161 C412.616473,211.519361 412.661916,211.99566 412.661916,212.479591 L412.661916,306.675863 C412.661916,307.13202 412.626367,307.582499 412.570105,308.032718 C412.434391,308.770431 412.375944,309.10053 412.300188,309.399656 C412.031496,310.226911 411.941588,310.508589 411.83599,310.77708 C411.49615,311.504607 411.382098,311.739713 411.254083,311.969064 C410.800233,312.691941 410.649503,312.920736 410.4808,313.140587 C410.329551,313.348451 410.216348,313.484374 410.102568,313.620683 C409.937944,313.810642 409.766758,314.000889 409.587592,314.178395 C409.408476,314.361528 409.289552,314.4873 409.161879,314.600127 C408.934408,314.806424 408.725958,314.980934 408.520907,315.143285 C408.363569,315.266967 408.209948,315.38815 408.04763,315.503982 L266.561603,409.843073 C264.749819,411.050927 262.664838,411.659421 260.582024,411.659421 C258.452028,411.659421 256.370038,411.026999 254.597134,409.843085 L113.340887,315.670679 C112.989132,315.417073 112.824104,315.286725 112.658321,315.154462 C112.430894,314.977147 112.232102,314.811832 112.04373,314.637693 C111.406634,314.014592 111.229423,313.81896 111.058522,313.617393 C110.9426,313.481243 110.829426,313.345966 110.722039,313.197336 C110.54075,312.954957 110.391455,312.741928 110.252658,312.521884 C110.120183,312.320124 110.021655,312.162858 109.927249,312.003367 C109.794761,311.763329 109.675811,311.522668 109.555969,311.27323 C109.451762,311.0574 109.38429,310.922914 109.327501,310.783862 C109.231579,310.540689 109.15219,310.296411 109.072549,310.053636 C108.81539,309.206367 108.754898,308.905678 108.702097,308.615978 C108.556896,307.715971 108.508079,307.241913 108.500951,306.796829 L108.5,212.479591 C108.5,212.032134 108.531416,211.585266 108.59089,211.14183 C108.737265,210.343033 108.791367,210.030322 108.860567,209.756096 C109.132755,208.91808 109.216341,208.65337 109.321893,208.396413 C109.75497,207.450626 109.972826,207.056561 110.221395,206.681891 C110.390311,206.41534 110.538319,206.204026 110.692753,205.999234 C110.970505,205.625024 111.262883,205.286615 111.579108,204.971244 C111.770913,204.776257 111.876302,204.664352 111.992175,204.563046 C112.223095,204.353362 112.425123,204.18197 112.634094,204.019247 C112.800585,203.887442 112.949677,203.767601 113.109327,203.654778 L254.597604,109.312054 C256.40874,108.104018 258.494316,107.5 260.579892,107.5 Z M331.460116,272.55839 L271.366142,312.749221 L271.366142,380.719985 L382.456106,306.663201 L331.460116,272.55839 Z M189.705084,272.55733 L138.705719,306.662053 L249.794628,380.718892 L249.795797,312.748212 L189.705084,272.55733 Z M260.582087,225.14248 L209.096852,259.578793 L260.582087,294.015105 L312.06265,259.578793 L260.582087,225.14248 Z M391.089417,232.666564 L350.858785,259.577677 L391.089417,286.49008 L391.089417,232.666564 Z M130.071433,232.666814 L130.071433,286.48983 L170.305562,259.577677 L130.071433,232.666814 Z M249.794709,138.43764 L138.705041,212.493089 L189.703982,246.606881 L249.794709,206.407092 L249.794709,138.43764 Z M271.366142,138.43768 L271.366142,206.407134 L331.460177,246.606903 L382.455673,212.491901 L271.366142,138.43768 Z" />
	</g>
</svg>