<svg xmlns="http://www.w3.org/2000/svg" width="430" height="490" viewBox="0 0 430 490">
	<style>
		@media(prefers-color-scheme:light) {
			g {
				fill: #000;
				stroke: #fff
			}
		}

		@media(prefers-color-scheme:dark) {
			g {
				fill: #fff;
				stroke: #000
			}
		}
	</style>
	<g fill-rule="evenodd">
		<path stroke-width="5"
			d="M301.799751,422.20612 L301.799751,465.198453 C274.611798,471.995441 249.827658,475.421565 227.47496,475.421565 C163.373282,475.421565 111.926159,455.08586 73.1612212,414.442081 C34.3962838,373.825931 15,319.974995 15,252.944533 C15,185.30621 35.9711957,128.55412 77.885957,82.7435242 C119.828348,36.877668 171.800442,14 233.829868,14 C288.233405,14 332.027008,32.5673827 365.210679,69.7297783 C398.39435,106.892174 415,155.907854 415,216.776818 C415,261.786144 406.65573,297.180217 389.967189,323.014299 C373.306279,348.84838 350.400981,361.751606 321.251295,361.751606 C305.861366,361.751606 293.731781,358.104442 284.834911,350.810113 C275.91041,343.543414 268.14637,330.750708 261.515162,312.459626 C236.261311,345.339366 210.427229,361.751606 184.040547,361.751606 C160.555018,361.751606 142.125786,353.462596 128.669959,336.884576 C115.241763,320.251295 108.500035,297.373627 108.500035,268.251571 C108.500035,224.872418 120.104649,189.644125 143.258617,162.621952 C166.384955,135.572149 196.474062,122.033432 233.553568,122.033432 C245.517372,122.033432 268.754231,123.497824 303.236513,126.398978 L303.236513,251.480141 L303.706224,274.053879 C303.706224,305.469227 312.603095,321.163086 330.424466,321.163086 C358.275541,321.163086 372.201078,288.062306 372.201078,221.833115 C372.201078,172.789805 359.408372,133.002556 333.822961,102.471368 C308.237549,71.967811 274.805208,56.7160323 233.525938,56.7160323 C185.118118,56.7160323 143.728328,75.6426055 109.328936,113.551012 C74.9019134,151.404158 57.7160323,196.993714 57.7160323,250.264419 C57.7160323,304.336396 73.6585619,348.29578 105.543621,382.114941 C137.45631,415.961732 178.818471,432.871313 229.657733,432.871313 C250.849969,432.871313 274.888098,429.307039 301.772121,422.17849 L301.799751,422.20612 Z M249.302687,166.987497 C242.219572,164.052053 234.644077,162.486325 226.97762,162.373282 C184.869448,162.373282 163.842992,194.976722 163.842992,260.238862 C163.842992,298.451198 175.254196,317.543552 198.076604,317.543552 C213.466533,317.543552 230.541894,302.070733 249.302687,271.180355 L249.302687,167.015127 L249.302687,166.987497 Z" />
	</g>
</svg>
