<svg xmlns="http://www.w3.org/2000/svg" width="450" height="432" viewBox="0 0 450 432">
	<style>
		@media(prefers-color-scheme:light) {
			path {
				fill: #000;
				stroke: #fff
			}
		}

		@media(prefers-color-scheme:dark) {
			path {
				fill: #fff;
				stroke: #000;
			}
		}
	</style>
	<path fill-rule="evenodd" stroke-width="5"
		d="M225,2.5 C265.370933,2.5 302.604261,12.2681764 336.694457,31.8208644 C370.788513,51.3687745 397.781626,77.8875406 417.674937,111.386066 C437.56275,144.869853 447.5,181.433462 447.5,221.081516 C447.5,268.702662 433.358023,311.526403 405.075016,349.564752 C376.808799,387.572893 340.306767,413.891947 295.563763,428.513475 C291.463654,429.232137 288.302477,428.961906 286.334478,427.102801 C284.353119,425.236264 282.194131,422.134604 282.194131,419.297527 L282.194131,358.966047 C282.194131,341.956027 279.011232,329.475686 271.205416,320.565242 C280.403984,319.426787 288.793447,317.872842 296.381171,315.908464 C305.448865,313.555838 314.821509,309.743523 324.4907,304.453531 C334.253092,299.115943 342.398251,292.537422 348.939903,284.723405 C355.464674,276.928894 360.815728,266.580094 364.930705,253.649244 C369.004943,240.86029 371.054808,226.169701 371.054808,209.569735 C371.054808,186.223272 363.467465,166.278206 348.320427,149.719056 C355.130391,132.084563 354.210985,112.380558 345.381754,90.601788 C345.239865,90.2517965 345.096884,89.903612 344.951739,89.5601225 C344.571394,89.4099817 344.193282,89.2756405 343.817459,89.1570073 C337.99203,87.318137 329.549394,88.2535282 318.467369,92.3647723 C307.945106,96.2671131 298.818113,100.562145 291.075407,105.244565 L280.857745,111.586771 C262.807066,106.727652 244.192115,104.300088 225,104.300088 C205.828216,104.300088 187.22617,106.72334 169.193042,111.572693 C166.160877,109.563748 162.28952,107.159416 157.57408,104.363748 C152.318115,101.244273 144.044514,97.4826124 132.740229,93.0993184 C120.861236,88.4883013 111.927555,87.3171641 105.912191,89.153249 C105.526318,89.27103 105.137393,89.4057826 104.744779,89.5603823 C104.601355,89.9128121 104.459072,90.2670757 104.31793,90.6231737 C95.6893486,112.392986 94.8660969,132.092013 101.679757,149.727306 C86.5316826,166.2805 78.9451924,186.224607 78.9451924,209.569735 C78.9451924,226.172714 80.996023,240.818893 85.0709802,253.512921 C89.1849749,266.328555 94.4735856,276.66761 100.893913,284.55602 C107.340458,292.46985 115.442953,299.109883 125.216237,304.456824 C134.885806,309.743662 144.258273,313.559183 153.327882,315.912305 C160.935724,317.879073 169.353113,319.435699 178.579214,320.575189 C172.785534,327.226803 169.019718,335.890067 167.351442,346.603491 C163.691069,348.199194 159.869709,349.401692 155.947401,350.190778 C151.398459,351.117178 145.99922,351.579467 139.744988,351.579467 C133.752172,351.579467 127.815027,349.625918 121.919906,345.792713 C115.878287,341.866287 110.740767,336.14298 106.468805,328.657651 C102.530137,322.138296 97.5385349,316.88935 91.4742849,312.846517 C85.3270391,308.754208 80.1594792,306.356139 76.0084437,305.554235 L69.9111066,304.656762 C65.0941165,304.640414 61.8297694,305.261059 60.0210245,306.262533 C58.642128,307.024708 57.8299328,307.957657 57.4061717,308.915643 C56.8991546,310.061843 56.8537266,311.341791 57.4736872,312.762824 C58.1520165,314.317647 59.1596408,315.875467 60.5179436,317.436544 C61.8302387,318.93631 63.2472036,320.220758 64.7753129,321.293373 L67.0277667,322.875885 C71.0935429,324.627458 75.0715909,328.092934 79.0344761,333.165426 C83.0864994,338.347952 86.0641717,343.060684 87.9478583,347.317243 L90.8375543,353.843411 C93.5510665,361.584744 98.1292185,367.845124 104.561844,372.63374 C110.939675,377.387617 117.837033,380.413026 125.244489,381.727979 C132.416255,383.000498 139.336299,383.684013 146.006456,383.781363 C152.844959,383.884612 158.490749,383.513799 162.945736,382.698594 L168.919549,380.595898 C168.915892,381.861361 168.910922,383.183595 168.905785,384.550784 C168.88314,390.577629 168.857297,397.475434 168.925563,404.238236 C168.956749,407.328766 168.968191,409.91235 168.969256,412.016408 L168.969023,412.97939 C168.96603,415.943364 168.942591,417.818877 168.931473,418.70827 C168.926402,422.086236 165.926798,425.186418 163.847466,427.071572 C161.784101,428.944925 158.561143,429.242777 154.403264,428.501968 C109.675317,413.879021 73.1842989,387.563572 44.9249227,349.561377 C16.6386027,311.52946 2.5,268.702577 2.5,221.088102 C2.5,181.436692 12.4405478,144.866487 32.3250086,111.382865 C52.2215449,77.8876485 79.2147258,51.3687847 113.306034,31.8205831 C147.395848,12.2648577 184.629132,2.5 225,2.5 Z" />
</svg>
