<svg xmlns="http://www.w3.org/2000/svg" width="450" height="425" viewBox="0 0 450 425">
	<style>
		@media(prefers-color-scheme:light) {
			path {
				fill: #000;
				stroke: #fff;
			}
		}

		@media(prefers-color-scheme:dark) {
			path {
				fill: #fff;
				stroke: #000
			}
		}
	</style>
	<path fill-rule="evenodd" stroke-width="5"
		d="M99.7472,140.5312 L99.7472,422.3 L8.0656,422.3 L8.0656,140.5312 L99.7472,140.5312 Z M338.9652,133.8748 C371.586409,133.8748 397.847828,144.520835 417.69995,165.917363 C437.648798,187.432838 447.5,218.975562 447.5,260.4348 L447.5,422.3 L356.1136,422.3 L356.1136,271.4328 C356.1136,250.550086 351.951583,234.234136 343.806521,222.411377 C335.458023,210.297125 322.465687,204.1112 304.686,204.1112 C291.747121,204.1112 280.93369,207.654178 272.223526,214.641229 C263.684535,221.434785 257.020938,230.295512 252.863744,240.384344 C250.602531,246.470358 249.4532,254.566916 249.4532,264.7764 L249.4532,422.3 L158.079418,422.3 C158.448348,348.773129 158.641677,288.648802 158.653066,241.920095 L158.653133,231.925665 L158.65287,230.542277 L158.65217,227.810453 C158.639489,185.79868 158.542097,160.486956 158.357849,151.867523 L158.119839,140.5312 L249.45628,140.5312 L249.5,176 L249.5,189.627642 L254.112697,182.336604 C255.305344,180.451452 256.448869,178.518119 257.577991,176.6084 C260.07269,172.389042 262.481038,168.27998 265.251009,165.155258 C269.270759,160.617172 274.677686,155.710805 281.468527,150.421988 C288.176917,145.197385 296.403462,141.150478 306.132314,138.256893 C315.977247,135.332307 326.922413,133.8748 338.9652,133.8748 Z M54.4932,2.5 C69.9632156,2.5 82.3932853,6.90058897 91.726569,15.841689 C101.005223,24.7304552 105.711641,35.9588433 105.896247,49.5171448 C106.083794,62.8568345 101.42088,74.0090771 91.8914496,82.9655137 C82.266871,92.0113775 69.5845951,96.464 53.9064,96.464 L53.3196,96.464 C38.0431316,96.464 25.7116055,92.0196532 16.38713,82.9908654 C7.11726647,74.0182662 2.5,62.8440414 2.5,49.482 C2.5,35.950767 7.25116767,24.7404817 16.7910374,15.8698363 C26.4146298,6.91100889 39.0013516,2.5 54.4932,2.5 Z" />
</svg>
