<svg xmlns="http://www.w3.org/2000/svg" width="506" height="506" viewBox="0 0 506 506">
	<style>
		@media(prefers-color-scheme:light) {
			g {
				fill: #000;
				stroke: #fff
			}
		}

		@media(prefers-color-scheme:dark) {
			g {
				fill: #fff;
				stroke: #000
			}
		}
	</style>

	<g fill-rule="evenodd" stroke-width="5" transform="translate(3 3)">
		<path
			d="M250.003198,458.943284 C134.789616,458.943284 41.0600008,365.210672 41.0600008,250.001599 C41.0600008,134.793592 134.789616,41.0599132 250.002132,41.0599132 C365.210384,41.0599132 458.939999,134.793592 458.939999,250.001599 C458.939999,365.210672 365.210384,458.943284 250.002132,458.943284 M250.003198,0 C111.928526,0 0,111.928287 0,250.002665 C0,388.077042 111.926394,500 250.003198,500 C388.073606,500 500,388.077042 500,250.001599 C500,111.928287 388.073606,0 250.003198,0" />
		<path
			d="M102.345,339.665 L160.5575,191.78 L195.85,291.4475 L214.65,339.665 L253.225,339.665 L182.9075,159 L145.3125,159 L75,339.665 M338.05,365.8125 L338.05,342.495 C316.405,320.685 305.58,289.8025 305.58,249.845 C305.58,209.97 316.405,179.125 338.0525,157.315 L338.0525,134 C317.87,145.23 301.8975,161.2625 290.14,182.095 C278.38,202.93 272.5,225.5125 272.5,249.845 C272.5,274.1775 278.4825,296.9225 290.445,318.0825 C302.4075,339.24 318.2775,355.15 338.0525,365.8125 L338.05,365.8125 Z M360,365.8125 C379.775,355.15 395.645,339.24 407.6075,318.0825 C419.57,296.9225 425.5525,274.1775 425.5525,249.845 C425.5525,225.5125 419.6725,202.93 407.9125,182.095 C396.1525,161.2625 380.1825,145.23 360,134 L360,157.315 C381.6475,179.125 392.47,209.9675 392.47,249.845 C392.47,289.8025 381.645,320.685 360,342.495 L360,365.8125 Z" />
	</g>
</svg>