<svg xmlns="http://www.w3.org/2000/svg" width="450" height="533" viewBox="0 0 450 533">
	<style>
		@media(prefers-color-scheme:light) {
			g {
				fill: #000;
				stroke: #fff
			}
		}

		@media(prefers-color-scheme:dark) {
			g {
				fill: #fff;
				stroke: #000
			}
		}
	</style>
	<g stroke-width="5">
		<path
			d="M45.0349566,345.135005 L45.0349566,487.753435 L382.526519,487.753435 L382.526519,345.135005 L425.061475,345.135005 L425.061475,530.297432 L2.5,530.297432 L2.5,345.135005 L45.0349566,345.135005 Z" />
		<path
			d="M330.30798,392.669961 L330.30798,435.209438 L97.6241562,435.209438 L97.6241562,392.669961 L330.30798,392.669961 Z M111.557494,285.955565 L339.267457,333.813687 L330.518506,375.443001 L102.808543,327.584879 L111.557494,285.955565 Z M151.902369,178.372934 L362.832081,276.607077 L344.873185,315.166121 L133.943473,216.931978 L151.902369,178.372934 Z M220.990764,79.429487 L399.789414,228.336171 L372.567879,261.022237 L193.769229,112.115553 L220.990764,79.429487 Z M307.636045,3.49796931 L446.502017,190.199929 L412.372091,215.585022 L273.506119,28.8830623 L307.636045,3.49796931 Z" />
	</g>
</svg>
