<svg xmlns="http://www.w3.org/2000/svg" width="450" height="358" viewBox="0 0 450 358">
	<style>
		@media(prefers-color-scheme:light) {
			path {
				fill: #000;
				stroke: #fff
			}
		}

		@media(prefers-color-scheme:dark) {
			path {
				fill: #fff;
				stroke: #000
			}
		}
	</style>

	<path fill-rule="evenodd" stroke-width="5"
		d="M311.517944,2.5 C337.453569,2.5 359.313842,11.7489179 377.101343,30.2527821 C377.411843,30.5757866 377.719475,30.8999198 378.02732,31.2230871 C378.473249,31.142842 378.918951,31.0609526 379.364419,30.9774192 C398.030757,27.4771324 416.036277,21.1365159 432.757033,12.1901064 C425.450226,30.0353409 413.068405,44.0754501 395.623235,54.3244877 C392.055902,56.4202957 388.453169,58.2539871 384.819333,59.8253605 C388.960345,59.6821614 393.071009,59.3957856 397.151319,58.9662792 C412.393409,57.3618488 427.63391,53.7157387 442.871993,48.0256627 C431.393313,63.0158253 417.718743,76.2109427 402.296539,87.1585028 C401.909466,87.4332694 401.52142,87.7065296 401.133021,87.9786576 C401.179887,88.4806126 401.218944,88.9470508 401.250202,89.3779697 C401.436366,91.9443728 401.530642,95.7973704 401.530642,100.936757 C401.530642,124.929606 397.944814,148.875243 390.784128,172.777626 C383.621187,196.687537 372.73024,219.62623 358.115628,241.598313 C343.612791,263.447375 326.031709,283.088334 305.915264,299.914402 C285.760122,316.792203 261.457285,330.245633 233.017787,340.2945 C204.534431,350.365556 174.069698,355.392466 141.625462,355.392466 C94.5770598,355.392466 51.2073313,344.046868 11.5158767,321.355302 L10.346,320.682 L10.4188711,320.686736 C13.8004376,320.856619 17.3389365,320.950077 21.0333361,320.967069 L22.2705753,320.969901 C65.6737897,320.969901 104.346953,307.934214 138.292839,281.867523 C140.261137,280.356087 142.191211,278.817988 144.074017,277.257599 C141.683899,277.388103 139.264783,277.430598 136.816679,277.385109 C117.364816,277.023673 99.9481499,271.179335 84.5726714,259.839139 C70.3283136,249.338491 60.2174763,236.152149 54.2503351,220.274177 C59.1181732,220.859308 63.6879955,221.150725 67.9563172,221.150725 C76.349968,221.150725 84.6467111,220.101809 92.8464731,217.999927 C96.4413761,217.078429 99.9552601,215.970533 103.385625,214.676572 C99.8595574,214.36487 96.3039096,213.848444 92.7186844,213.12731 C71.9697156,208.953856 54.7852837,198.840287 41.1670981,182.78371 C28.2406644,167.542746 21.4607644,149.9675 20.8226677,130.062536 L20.819,129.965 L21.088739,130.09821 C32.9546553,135.908086 45.5771088,139.125453 58.954076,139.746725 L59.8673112,139.785061 C62.9545789,139.900913 66.0122892,139.876578 69.0397362,139.711852 C66.4167972,138.34466 63.8463112,136.838648 61.3282729,135.193801 C49.10803,127.211223 39.3857245,116.783534 32.1594421,103.910898 C24.9488847,91.0513051 21.3435537,77.1052959 21.3435537,62.0712941 C21.3435537,47.3223344 24.8259497,33.5814985 31.7982628,20.8469361 C54.6057337,47.6040361 82.1292912,69.1290606 114.371643,85.4117447 C147.708568,102.255737 183.403628,111.617265 221.451195,113.498682 C222.561225,113.553572 223.669891,113.601929 224.770905,113.64279 C224.50153,112.588549 224.250015,111.529359 224.016525,110.465705 C222.56252,103.842027 221.815774,97.082709 221.78886,90.3113019 C221.78886,66.0302768 230.535562,45.331851 248.021918,28.2097936 C265.528999,11.067444 286.694718,2.5 311.517944,2.5 Z" />
</svg>