<svg xmlns="http://www.w3.org/2000/svg" width="512" height="352" viewBox="0 0 512 352">
	<style>
		@media(prefers-color-scheme:light) {
			path {
				fill: #000;
				stroke: #fff
			}
		}

		@media(prefers-color-scheme:dark) {
			path {
				fill: #fff;
				stroke: #000
			}
		}
	</style>
	<path stroke-width="5"
		d="M256.063677,2.49999998 L258.069908,2.50025947 C270.123243,2.50337521 282.491944,2.53458947 294.844549,2.59595124 L298.961919,2.61752905 C353.099439,2.91611415 406.233131,3.7970062 430.422765,5.43826532 C459.989623,7.10330079 474.650137,11.290276 488.06076,35.145117 C502.418524,59.6367154 509.5,101.796777 509.5,175.936 C509.5,249.974543 502.422548,292.450647 488.119852,316.647892 C474.67608,340.560497 460.006652,344.686739 430.452771,346.689711 C406.520998,348.060631 354.410316,349.002696 300.983104,349.350852 L296.871175,349.376459 C283.159107,349.457892 269.405766,349.5 256.064,349.5 C246.699778,349.5 237.135553,349.47931 227.527504,349.438811 L223.406388,349.420239 C222.032317,349.413646 220.65779,349.406652 219.284349,349.399265 L213.099387,349.363304 C158.880003,349.024407 105.716174,348.07054 81.5184103,346.655912 C52.0398491,344.651796 37.3764057,340.51582 23.8384108,316.654332 C9.64462677,292.425987 2.5,249.949433 2.5,176.16 C2.5,101.79091 9.64889406,59.6284212 23.8267971,35.1739174 C37.3757318,11.262461 52.0675036,7.1023607 81.5514415,5.40788152 C105.433447,3.81086677 157.547047,2.93706086 211.037382,2.62882251 L215.158509,2.60620601 C216.5326,2.59904035 217.907144,2.59224578 219.28102,2.58582275 L223.40422,2.56764712 L227.525362,2.55166495 C237.134557,2.51692907 246.699285,2.5 256.063677,2.49999998 Z M189.5,75.5845241 L189.5,276.415476 L356.859127,176 L189.5,75.5845241 Z" />
</svg>
