<svg xmlns="http://www.w3.org/2000/svg" xmlns:xlink="http://www.w3.org/1999/xlink" aria-hidden="true" style="width: 0; height: 0; position: absolute;"><symbol id="svg-codepen" viewBox="0 0 520 520">
	<style>
		@media(prefers-color-scheme:light) {
			g {
				fill: #000;
				stroke: #fff
			}
		}

		@media(prefers-color-scheme:dark) {
			g {
				fill: #fff;
				stroke: #000
			}
		}
	</style>
	<g fill-rule="evenodd">
		<path stroke-width="5" d="M260.003198,468.943284 C144.789616,468.943284 51.0600008,375.210672 51.0600008,260.001599 C51.0600008,144.793592 144.789616,51.0599132 260.002132,51.0599132 C375.210384,51.0599132 468.939999,144.793592 468.939999,260.001599 C468.939999,375.210672 375.210384,468.943284 260.002132,468.943284 M260.003198,10 C121.928526,10 10,121.928287 10,260.002665 C10,398.077042 121.926394,510 260.003198,510 C398.073606,510 510,398.077042 510,260.001599 C510,121.928287 398.073606,10 260.003198,10"></path>
		<path stroke-width="5" d="M260.579892,107.5 C262.665468,107.5 264.751044,108.104018 266.562669,109.31238 L407.81702,203.481747 C408.136194,203.71325 408.307199,203.846151 408.463128,203.967406 C408.73209,204.179433 408.941007,204.355401 409.143884,204.538203 C409.286558,204.665185 409.408408,204.794111 409.532248,204.921779 C409.754636,205.145347 409.93137,205.335328 410.100475,205.531299 C410.394067,205.88725 410.667417,206.259427 410.919189,206.646107 C411.071485,206.889959 411.157781,207.027114 411.240024,207.169431 C411.36315,207.38237 411.475554,207.601332 411.576815,207.825495 C411.693366,208.065649 411.770794,208.234529 411.843628,208.40544 C411.941516,208.649019 412.02157,208.897632 412.103038,209.147466 C412.347241,209.96799 412.416597,210.270196 412.466681,210.576161 C412.616473,211.519361 412.661916,211.99566 412.661916,212.479591 L412.661916,306.675863 C412.661916,307.13202 412.626367,307.582499 412.570105,308.032718 C412.434391,308.770431 412.375944,309.10053 412.300188,309.399656 C412.031496,310.226911 411.941588,310.508589 411.83599,310.77708 C411.49615,311.504607 411.382098,311.739713 411.254083,311.969064 C410.800233,312.691941 410.649503,312.920736 410.4808,313.140587 C410.329551,313.348451 410.216348,313.484374 410.102568,313.620683 C409.937944,313.810642 409.766758,314.000889 409.587592,314.178395 C409.408476,314.361528 409.289552,314.4873 409.161879,314.600127 C408.934408,314.806424 408.725958,314.980934 408.520907,315.143285 C408.363569,315.266967 408.209948,315.38815 408.04763,315.503982 L266.561603,409.843073 C264.749819,411.050927 262.664838,411.659421 260.582024,411.659421 C258.452028,411.659421 256.370038,411.026999 254.597134,409.843085 L113.340887,315.670679 C112.989132,315.417073 112.824104,315.286725 112.658321,315.154462 C112.430894,314.977147 112.232102,314.811832 112.04373,314.637693 C111.406634,314.014592 111.229423,313.81896 111.058522,313.617393 C110.9426,313.481243 110.829426,313.345966 110.722039,313.197336 C110.54075,312.954957 110.391455,312.741928 110.252658,312.521884 C110.120183,312.320124 110.021655,312.162858 109.927249,312.003367 C109.794761,311.763329 109.675811,311.522668 109.555969,311.27323 C109.451762,311.0574 109.38429,310.922914 109.327501,310.783862 C109.231579,310.540689 109.15219,310.296411 109.072549,310.053636 C108.81539,309.206367 108.754898,308.905678 108.702097,308.615978 C108.556896,307.715971 108.508079,307.241913 108.500951,306.796829 L108.5,212.479591 C108.5,212.032134 108.531416,211.585266 108.59089,211.14183 C108.737265,210.343033 108.791367,210.030322 108.860567,209.756096 C109.132755,208.91808 109.216341,208.65337 109.321893,208.396413 C109.75497,207.450626 109.972826,207.056561 110.221395,206.681891 C110.390311,206.41534 110.538319,206.204026 110.692753,205.999234 C110.970505,205.625024 111.262883,205.286615 111.579108,204.971244 C111.770913,204.776257 111.876302,204.664352 111.992175,204.563046 C112.223095,204.353362 112.425123,204.18197 112.634094,204.019247 C112.800585,203.887442 112.949677,203.767601 113.109327,203.654778 L254.597604,109.312054 C256.40874,108.104018 258.494316,107.5 260.579892,107.5 Z M331.460116,272.55839 L271.366142,312.749221 L271.366142,380.719985 L382.456106,306.663201 L331.460116,272.55839 Z M189.705084,272.55733 L138.705719,306.662053 L249.794628,380.718892 L249.795797,312.748212 L189.705084,272.55733 Z M260.582087,225.14248 L209.096852,259.578793 L260.582087,294.015105 L312.06265,259.578793 L260.582087,225.14248 Z M391.089417,232.666564 L350.858785,259.577677 L391.089417,286.49008 L391.089417,232.666564 Z M130.071433,232.666814 L130.071433,286.48983 L170.305562,259.577677 L130.071433,232.666814 Z M249.794709,138.43764 L138.705041,212.493089 L189.703982,246.606881 L249.794709,206.407092 L249.794709,138.43764 Z M271.366142,138.43768 L271.366142,206.407134 L331.460177,246.606903 L382.455673,212.491901 L271.366142,138.43768 Z"></path>
	</g>
</symbol><symbol id="svg-codersrank" viewBox="0 0 63 41">
	<g fill="none" stroke="#FFF">
		<path fill="#19223C" d="M34.25 1.055L3.147 20.635c-1.465.886-2.18 1.878-2.146 2.977v2.98c.035 1.1.768 2.075 2.2 2.926l15.393 8.885a.726.726 0 001.047-.373l3.456-8.352-7.33-4.15a1.316 1.316 0 01-.697-.976 1.345 1.345 0 01.644-1.365l13.457-8.247 5.55-13.512a.324.324 0 00-.104-.36.311.311 0 00-.369-.013h.002z"></path>
		<path fill="#67A4AC" d="M59.8 11.962L44.618 2.758a.726.726 0 00-1.047.32l-3.56 8.352 7.225 4.31c.208.113.381.282.502.488a1.347 1.347 0 01-.502 1.853l-13.56 7.98-5.76 13.407a.323.323 0 00.131.515.311.311 0 00.34-.09l9.948-6.011 3.927 5.64a.947.947 0 00.785.425h9.425a.932.932 0 00.832-.506.97.97 0 00-.047-.984l-6.388-9.79 12.933-7.82c1.466-.887 2.2-1.88 2.2-2.98V14.94c0-1.1-.734-2.092-2.2-2.98H59.8z"></path>
	</g>
</symbol><symbol id="svg-email" viewBox="0 0 430 490">
	<style>
		@media(prefers-color-scheme:light) {
			g {
				fill: #000;
				stroke: #fff
			}
		}

		@media(prefers-color-scheme:dark) {
			g {
				fill: #fff;
				stroke: #000
			}
		}
	</style>
	<g fill-rule="evenodd">
		<path stroke-width="5" d="M301.799751,422.20612 L301.799751,465.198453 C274.611798,471.995441 249.827658,475.421565 227.47496,475.421565 C163.373282,475.421565 111.926159,455.08586 73.1612212,414.442081 C34.3962838,373.825931 15,319.974995 15,252.944533 C15,185.30621 35.9711957,128.55412 77.885957,82.7435242 C119.828348,36.877668 171.800442,14 233.829868,14 C288.233405,14 332.027008,32.5673827 365.210679,69.7297783 C398.39435,106.892174 415,155.907854 415,216.776818 C415,261.786144 406.65573,297.180217 389.967189,323.014299 C373.306279,348.84838 350.400981,361.751606 321.251295,361.751606 C305.861366,361.751606 293.731781,358.104442 284.834911,350.810113 C275.91041,343.543414 268.14637,330.750708 261.515162,312.459626 C236.261311,345.339366 210.427229,361.751606 184.040547,361.751606 C160.555018,361.751606 142.125786,353.462596 128.669959,336.884576 C115.241763,320.251295 108.500035,297.373627 108.500035,268.251571 C108.500035,224.872418 120.104649,189.644125 143.258617,162.621952 C166.384955,135.572149 196.474062,122.033432 233.553568,122.033432 C245.517372,122.033432 268.754231,123.497824 303.236513,126.398978 L303.236513,251.480141 L303.706224,274.053879 C303.706224,305.469227 312.603095,321.163086 330.424466,321.163086 C358.275541,321.163086 372.201078,288.062306 372.201078,221.833115 C372.201078,172.789805 359.408372,133.002556 333.822961,102.471368 C308.237549,71.967811 274.805208,56.7160323 233.525938,56.7160323 C185.118118,56.7160323 143.728328,75.6426055 109.328936,113.551012 C74.9019134,151.404158 57.7160323,196.993714 57.7160323,250.264419 C57.7160323,304.336396 73.6585619,348.29578 105.543621,382.114941 C137.45631,415.961732 178.818471,432.871313 229.657733,432.871313 C250.849969,432.871313 274.888098,429.307039 301.772121,422.17849 L301.799751,422.20612 Z M249.302687,166.987497 C242.219572,164.052053 234.644077,162.486325 226.97762,162.373282 C184.869448,162.373282 163.842992,194.976722 163.842992,260.238862 C163.842992,298.451198 175.254196,317.543552 198.076604,317.543552 C213.466533,317.543552 230.541894,302.070733 249.302687,271.180355 L249.302687,167.015127 L249.302687,166.987497 Z"></path>
	</g>
</symbol><symbol id="svg-github" viewBox="0 0 450 432">
	<style>
		@media(prefers-color-scheme:light) {
			path {
				fill: #000;
				stroke: #fff
			}
		}

		@media(prefers-color-scheme:dark) {
			path {
				fill: #fff;
				stroke: #000;
			}
		}
	</style>
	<path fill-rule="evenodd" stroke-width="5" d="M225,2.5 C265.370933,2.5 302.604261,12.2681764 336.694457,31.8208644 C370.788513,51.3687745 397.781626,77.8875406 417.674937,111.386066 C437.56275,144.869853 447.5,181.433462 447.5,221.081516 C447.5,268.702662 433.358023,311.526403 405.075016,349.564752 C376.808799,387.572893 340.306767,413.891947 295.563763,428.513475 C291.463654,429.232137 288.302477,428.961906 286.334478,427.102801 C284.353119,425.236264 282.194131,422.134604 282.194131,419.297527 L282.194131,358.966047 C282.194131,341.956027 279.011232,329.475686 271.205416,320.565242 C280.403984,319.426787 288.793447,317.872842 296.381171,315.908464 C305.448865,313.555838 314.821509,309.743523 324.4907,304.453531 C334.253092,299.115943 342.398251,292.537422 348.939903,284.723405 C355.464674,276.928894 360.815728,266.580094 364.930705,253.649244 C369.004943,240.86029 371.054808,226.169701 371.054808,209.569735 C371.054808,186.223272 363.467465,166.278206 348.320427,149.719056 C355.130391,132.084563 354.210985,112.380558 345.381754,90.601788 C345.239865,90.2517965 345.096884,89.903612 344.951739,89.5601225 C344.571394,89.4099817 344.193282,89.2756405 343.817459,89.1570073 C337.99203,87.318137 329.549394,88.2535282 318.467369,92.3647723 C307.945106,96.2671131 298.818113,100.562145 291.075407,105.244565 L280.857745,111.586771 C262.807066,106.727652 244.192115,104.300088 225,104.300088 C205.828216,104.300088 187.22617,106.72334 169.193042,111.572693 C166.160877,109.563748 162.28952,107.159416 157.57408,104.363748 C152.318115,101.244273 144.044514,97.4826124 132.740229,93.0993184 C120.861236,88.4883013 111.927555,87.3171641 105.912191,89.153249 C105.526318,89.27103 105.137393,89.4057826 104.744779,89.5603823 C104.601355,89.9128121 104.459072,90.2670757 104.31793,90.6231737 C95.6893486,112.392986 94.8660969,132.092013 101.679757,149.727306 C86.5316826,166.2805 78.9451924,186.224607 78.9451924,209.569735 C78.9451924,226.172714 80.996023,240.818893 85.0709802,253.512921 C89.1849749,266.328555 94.4735856,276.66761 100.893913,284.55602 C107.340458,292.46985 115.442953,299.109883 125.216237,304.456824 C134.885806,309.743662 144.258273,313.559183 153.327882,315.912305 C160.935724,317.879073 169.353113,319.435699 178.579214,320.575189 C172.785534,327.226803 169.019718,335.890067 167.351442,346.603491 C163.691069,348.199194 159.869709,349.401692 155.947401,350.190778 C151.398459,351.117178 145.99922,351.579467 139.744988,351.579467 C133.752172,351.579467 127.815027,349.625918 121.919906,345.792713 C115.878287,341.866287 110.740767,336.14298 106.468805,328.657651 C102.530137,322.138296 97.5385349,316.88935 91.4742849,312.846517 C85.3270391,308.754208 80.1594792,306.356139 76.0084437,305.554235 L69.9111066,304.656762 C65.0941165,304.640414 61.8297694,305.261059 60.0210245,306.262533 C58.642128,307.024708 57.8299328,307.957657 57.4061717,308.915643 C56.8991546,310.061843 56.8537266,311.341791 57.4736872,312.762824 C58.1520165,314.317647 59.1596408,315.875467 60.5179436,317.436544 C61.8302387,318.93631 63.2472036,320.220758 64.7753129,321.293373 L67.0277667,322.875885 C71.0935429,324.627458 75.0715909,328.092934 79.0344761,333.165426 C83.0864994,338.347952 86.0641717,343.060684 87.9478583,347.317243 L90.8375543,353.843411 C93.5510665,361.584744 98.1292185,367.845124 104.561844,372.63374 C110.939675,377.387617 117.837033,380.413026 125.244489,381.727979 C132.416255,383.000498 139.336299,383.684013 146.006456,383.781363 C152.844959,383.884612 158.490749,383.513799 162.945736,382.698594 L168.919549,380.595898 C168.915892,381.861361 168.910922,383.183595 168.905785,384.550784 C168.88314,390.577629 168.857297,397.475434 168.925563,404.238236 C168.956749,407.328766 168.968191,409.91235 168.969256,412.016408 L168.969023,412.97939 C168.96603,415.943364 168.942591,417.818877 168.931473,418.70827 C168.926402,422.086236 165.926798,425.186418 163.847466,427.071572 C161.784101,428.944925 158.561143,429.242777 154.403264,428.501968 C109.675317,413.879021 73.1842989,387.563572 44.9249227,349.561377 C16.6386027,311.52946 2.5,268.702577 2.5,221.088102 C2.5,181.436692 12.4405478,144.866487 32.3250086,111.382865 C52.2215449,77.8876485 79.2147258,51.3687847 113.306034,31.8205831 C147.395848,12.2648577 184.629132,2.5 225,2.5 Z"></path>
</symbol><symbol id="svg-gitlab" viewBox="0 0 450 420">
	<style>
		@media(prefers-color-scheme:light) {
			path {
				fill: #000;
				stroke: #fff
			}
		}

		@media(prefers-color-scheme:dark) {
			path {
				fill: #fff;
				stroke: #000
			}
		}
	</style>
	<g fill-rule="evenodd">
		<path fill-rule="nonzero" stroke-width="5" d="M438.842505,238.27176 L414.842505,164.27176 L367.152505,17.6617595 C366.056893,14.2859655 362.911639,12 359.362505,12 C355.813371,12 352.668117,14.2859655 351.572505,17.6617595 L303.912505,164.28176 L145.672505,164.28176 L98.012505,17.6617595 C96.9168928,14.2859655 93.7716389,12 90.222505,12 C86.6733711,12 83.5281172,14.2859655 82.432505,17.6617595 L34.792505,164.28176 L10.792505,238.28176 C8.61174583,245.040434 11.0346969,252.434473 16.792505,256.59176 L224.792505,407.75176 L432.892505,256.58176 C438.650313,252.424473 441.073264,245.030434 438.892505,238.27176"></path>
	</g>
</symbol><symbol id="svg-linkedin" viewBox="0 0 450 425">
	<style>
		@media(prefers-color-scheme:light) {
			path {
				fill: #000;
				stroke: #fff;
			}
		}

		@media(prefers-color-scheme:dark) {
			path {
				fill: #fff;
				stroke: #000
			}
		}
	</style>
	<path fill-rule="evenodd" stroke-width="5" d="M99.7472,140.5312 L99.7472,422.3 L8.0656,422.3 L8.0656,140.5312 L99.7472,140.5312 Z M338.9652,133.8748 C371.586409,133.8748 397.847828,144.520835 417.69995,165.917363 C437.648798,187.432838 447.5,218.975562 447.5,260.4348 L447.5,422.3 L356.1136,422.3 L356.1136,271.4328 C356.1136,250.550086 351.951583,234.234136 343.806521,222.411377 C335.458023,210.297125 322.465687,204.1112 304.686,204.1112 C291.747121,204.1112 280.93369,207.654178 272.223526,214.641229 C263.684535,221.434785 257.020938,230.295512 252.863744,240.384344 C250.602531,246.470358 249.4532,254.566916 249.4532,264.7764 L249.4532,422.3 L158.079418,422.3 C158.448348,348.773129 158.641677,288.648802 158.653066,241.920095 L158.653133,231.925665 L158.65287,230.542277 L158.65217,227.810453 C158.639489,185.79868 158.542097,160.486956 158.357849,151.867523 L158.119839,140.5312 L249.45628,140.5312 L249.5,176 L249.5,189.627642 L254.112697,182.336604 C255.305344,180.451452 256.448869,178.518119 257.577991,176.6084 C260.07269,172.389042 262.481038,168.27998 265.251009,165.155258 C269.270759,160.617172 274.677686,155.710805 281.468527,150.421988 C288.176917,145.197385 296.403462,141.150478 306.132314,138.256893 C315.977247,135.332307 326.922413,133.8748 338.9652,133.8748 Z M54.4932,2.5 C69.9632156,2.5 82.3932853,6.90058897 91.726569,15.841689 C101.005223,24.7304552 105.711641,35.9588433 105.896247,49.5171448 C106.083794,62.8568345 101.42088,74.0090771 91.8914496,82.9655137 C82.266871,92.0113775 69.5845951,96.464 53.9064,96.464 L53.3196,96.464 C38.0431316,96.464 25.7116055,92.0196532 16.38713,82.9908654 C7.11726647,74.0182662 2.5,62.8440414 2.5,49.482 C2.5,35.950767 7.25116767,24.7404817 16.7910374,15.8698363 C26.4146298,6.91100889 39.0013516,2.5 54.4932,2.5 Z"></path>
</symbol><symbol id="svg-linktree" viewBox="0 0 30 25"><path fill="#39E09B" d="M11.2.688c-.5-.9-1.8-.9-2.3 0l-8.6 15.6c-.399.8.2 1.7 1.101 1.7h5.8v5.9c0 .6.5 1.1 1.1 1.1h3.4c.6 0 1.1-.5 1.1-1.1v-5.9h-1.6c-.7 0-1.2-.5-1.3-1.1 0-.2 0-.4.1-.601l4.8-8.7L11.2.688z"></path><path fill="#28BF7B" d="M18.8.688c.5-.9 1.8-.9 2.3 0l8.601 15.6c.399.8-.2 1.7-1.101 1.7h-5.7v5.9c0 .6-.5 1.1-1.101 1.1h-3.6c-.601 0-1.101-.5-1.101-1.1v-5.9H18.7c.7 0 1.2-.5 1.3-1.1 0-.2 0-.4-.1-.601l-4.801-8.7L18.8.688z"></path></symbol><symbol id="svg-logo" viewBox="0 0 506 506">
	<style>
		@media(prefers-color-scheme:light) {
			g {
				fill: #000;
				stroke: #fff
			}
		}

		@media(prefers-color-scheme:dark) {
			g {
				fill: #fff;
				stroke: #000
			}
		}
	</style>
	<g fill-rule="evenodd" stroke-width="5" transform="translate(3 3)">
		<path d="M250.003198,458.943284 C134.789616,458.943284 41.0600008,365.210672 41.0600008,250.001599 C41.0600008,134.793592 134.789616,41.0599132 250.002132,41.0599132 C365.210384,41.0599132 458.939999,134.793592 458.939999,250.001599 C458.939999,365.210672 365.210384,458.943284 250.002132,458.943284 M250.003198,0 C111.928526,0 0,111.928287 0,250.002665 C0,388.077042 111.926394,500 250.003198,500 C388.073606,500 500,388.077042 500,250.001599 C500,111.928287 388.073606,0 250.003198,0"></path>
		<path d="M102.345,339.665 L160.5575,191.78 L195.85,291.4475 L214.65,339.665 L253.225,339.665 L182.9075,159 L145.3125,159 L75,339.665 M338.05,365.8125 L338.05,342.495 C316.405,320.685 305.58,289.8025 305.58,249.845 C305.58,209.97 316.405,179.125 338.0525,157.315 L338.0525,134 C317.87,145.23 301.8975,161.2625 290.14,182.095 C278.38,202.93 272.5,225.5125 272.5,249.845 C272.5,274.1775 278.4825,296.9225 290.445,318.0825 C302.4075,339.24 318.2775,355.15 338.0525,365.8125 L338.05,365.8125 Z M360,365.8125 C379.775,355.15 395.645,339.24 407.6075,318.0825 C419.57,296.9225 425.5525,274.1775 425.5525,249.845 C425.5525,225.5125 419.6725,202.93 407.9125,182.095 C396.1525,161.2625 380.1825,145.23 360,134 L360,157.315 C381.6475,179.125 392.47,209.9675 392.47,249.845 C392.47,289.8025 381.645,320.685 360,342.495 L360,365.8125 Z"></path>
	</g>
</symbol><symbol id="svg-npm" viewBox="0 0 450 450">
	<style>
		@media(prefers-color-scheme:light) {
			path {
				fill: #000;
				stroke: #fff
			}
		}

		@media(prefers-color-scheme:dark) {
			path {
				fill: #fff;
				stroke: #000
			}
		}
	</style>
	<path stroke-width="5" d="M447.5,2.5 L447.5,447.5 L2.5,447.5 L2.5,2.5 L447.5,2.5 Z M370.681818,79.3181818 L79.3181818,79.3181818 L79.3181818,370.681818 L227.5,370.681818 L227.5,141.754545 L308.245455,141.754545 L308.245455,370.681818 L370.681818,370.681818 L370.681818,79.3181818 Z"></path>
</symbol><symbol id="svg-stackoverflow" viewBox="0 0 450 533">
	<style>
		@media(prefers-color-scheme:light) {
			g {
				fill: #000;
				stroke: #fff
			}
		}

		@media(prefers-color-scheme:dark) {
			g {
				fill: #fff;
				stroke: #000
			}
		}
	</style>
	<g stroke-width="5">
		<path d="M45.0349566,345.135005 L45.0349566,487.753435 L382.526519,487.753435 L382.526519,345.135005 L425.061475,345.135005 L425.061475,530.297432 L2.5,530.297432 L2.5,345.135005 L45.0349566,345.135005 Z"></path>
		<path d="M330.30798,392.669961 L330.30798,435.209438 L97.6241562,435.209438 L97.6241562,392.669961 L330.30798,392.669961 Z M111.557494,285.955565 L339.267457,333.813687 L330.518506,375.443001 L102.808543,327.584879 L111.557494,285.955565 Z M151.902369,178.372934 L362.832081,276.607077 L344.873185,315.166121 L133.943473,216.931978 L151.902369,178.372934 Z M220.990764,79.429487 L399.789414,228.336171 L372.567879,261.022237 L193.769229,112.115553 L220.990764,79.429487 Z M307.636045,3.49796931 L446.502017,190.199929 L412.372091,215.585022 L273.506119,28.8830623 L307.636045,3.49796931 Z"></path>
	</g>
</symbol><symbol id="svg-twitter" viewBox="0 0 450 358">
	<style>
		@media(prefers-color-scheme:light) {
			path {
				fill: #000;
				stroke: #fff
			}
		}

		@media(prefers-color-scheme:dark) {
			path {
				fill: #fff;
				stroke: #000
			}
		}
	</style>
	<path fill-rule="evenodd" stroke-width="5" d="M311.517944,2.5 C337.453569,2.5 359.313842,11.7489179 377.101343,30.2527821 C377.411843,30.5757866 377.719475,30.8999198 378.02732,31.2230871 C378.473249,31.142842 378.918951,31.0609526 379.364419,30.9774192 C398.030757,27.4771324 416.036277,21.1365159 432.757033,12.1901064 C425.450226,30.0353409 413.068405,44.0754501 395.623235,54.3244877 C392.055902,56.4202957 388.453169,58.2539871 384.819333,59.8253605 C388.960345,59.6821614 393.071009,59.3957856 397.151319,58.9662792 C412.393409,57.3618488 427.63391,53.7157387 442.871993,48.0256627 C431.393313,63.0158253 417.718743,76.2109427 402.296539,87.1585028 C401.909466,87.4332694 401.52142,87.7065296 401.133021,87.9786576 C401.179887,88.4806126 401.218944,88.9470508 401.250202,89.3779697 C401.436366,91.9443728 401.530642,95.7973704 401.530642,100.936757 C401.530642,124.929606 397.944814,148.875243 390.784128,172.777626 C383.621187,196.687537 372.73024,219.62623 358.115628,241.598313 C343.612791,263.447375 326.031709,283.088334 305.915264,299.914402 C285.760122,316.792203 261.457285,330.245633 233.017787,340.2945 C204.534431,350.365556 174.069698,355.392466 141.625462,355.392466 C94.5770598,355.392466 51.2073313,344.046868 11.5158767,321.355302 L10.346,320.682 L10.4188711,320.686736 C13.8004376,320.856619 17.3389365,320.950077 21.0333361,320.967069 L22.2705753,320.969901 C65.6737897,320.969901 104.346953,307.934214 138.292839,281.867523 C140.261137,280.356087 142.191211,278.817988 144.074017,277.257599 C141.683899,277.388103 139.264783,277.430598 136.816679,277.385109 C117.364816,277.023673 99.9481499,271.179335 84.5726714,259.839139 C70.3283136,249.338491 60.2174763,236.152149 54.2503351,220.274177 C59.1181732,220.859308 63.6879955,221.150725 67.9563172,221.150725 C76.349968,221.150725 84.6467111,220.101809 92.8464731,217.999927 C96.4413761,217.078429 99.9552601,215.970533 103.385625,214.676572 C99.8595574,214.36487 96.3039096,213.848444 92.7186844,213.12731 C71.9697156,208.953856 54.7852837,198.840287 41.1670981,182.78371 C28.2406644,167.542746 21.4607644,149.9675 20.8226677,130.062536 L20.819,129.965 L21.088739,130.09821 C32.9546553,135.908086 45.5771088,139.125453 58.954076,139.746725 L59.8673112,139.785061 C62.9545789,139.900913 66.0122892,139.876578 69.0397362,139.711852 C66.4167972,138.34466 63.8463112,136.838648 61.3282729,135.193801 C49.10803,127.211223 39.3857245,116.783534 32.1594421,103.910898 C24.9488847,91.0513051 21.3435537,77.1052959 21.3435537,62.0712941 C21.3435537,47.3223344 24.8259497,33.5814985 31.7982628,20.8469361 C54.6057337,47.6040361 82.1292912,69.1290606 114.371643,85.4117447 C147.708568,102.255737 183.403628,111.617265 221.451195,113.498682 C222.561225,113.553572 223.669891,113.601929 224.770905,113.64279 C224.50153,112.588549 224.250015,111.529359 224.016525,110.465705 C222.56252,103.842027 221.815774,97.082709 221.78886,90.3113019 C221.78886,66.0302768 230.535562,45.331851 248.021918,28.2097936 C265.528999,11.067444 286.694718,2.5 311.517944,2.5 Z"></path>
</symbol><symbol id="svg-youtube" viewBox="0 0 512 352">
	<style>
		@media(prefers-color-scheme:light) {
			path {
				fill: #000;
				stroke: #fff
			}
		}

		@media(prefers-color-scheme:dark) {
			path {
				fill: #fff;
				stroke: #000
			}
		}
	</style>
	<path stroke-width="5" d="M256.063677,2.49999998 L258.069908,2.50025947 C270.123243,2.50337521 282.491944,2.53458947 294.844549,2.59595124 L298.961919,2.61752905 C353.099439,2.91611415 406.233131,3.7970062 430.422765,5.43826532 C459.989623,7.10330079 474.650137,11.290276 488.06076,35.145117 C502.418524,59.6367154 509.5,101.796777 509.5,175.936 C509.5,249.974543 502.422548,292.450647 488.119852,316.647892 C474.67608,340.560497 460.006652,344.686739 430.452771,346.689711 C406.520998,348.060631 354.410316,349.002696 300.983104,349.350852 L296.871175,349.376459 C283.159107,349.457892 269.405766,349.5 256.064,349.5 C246.699778,349.5 237.135553,349.47931 227.527504,349.438811 L223.406388,349.420239 C222.032317,349.413646 220.65779,349.406652 219.284349,349.399265 L213.099387,349.363304 C158.880003,349.024407 105.716174,348.07054 81.5184103,346.655912 C52.0398491,344.651796 37.3764057,340.51582 23.8384108,316.654332 C9.64462677,292.425987 2.5,249.949433 2.5,176.16 C2.5,101.79091 9.64889406,59.6284212 23.8267971,35.1739174 C37.3757318,11.262461 52.0675036,7.1023607 81.5514415,5.40788152 C105.433447,3.81086677 157.547047,2.93706086 211.037382,2.62882251 L215.158509,2.60620601 C216.5326,2.59904035 217.907144,2.59224578 219.28102,2.58582275 L223.40422,2.56764712 L227.525362,2.55166495 C237.134557,2.51692907 246.699285,2.5 256.063677,2.49999998 Z M189.5,75.5845241 L189.5,276.415476 L356.859127,176 L189.5,75.5845241 Z"></path>
</symbol></svg>